<svg width="100%" height="100%" viewBox="50 75 260 100" xmlns="http://www.w3.org/2000/svg">
<g data-v-0dd9719b="" fill="#ff7f00" class="icon-text-wrapper icon-svg-group iconsvg" transform="translate(69.750000000092,94.36656188964844)"><g class="iconsvg-imagesvg" transform="translate(0,12.258966445922852)"><g><rect fill="#ff7f00" fill-opacity="0" stroke-width="2" x="0" y="0" width="60" height="36.7489434678753" class="image-rect"></rect> <svg x="0" y="0" width="60" height="36.7489434678753" filtersec="colorsb804328569" class="image-svg-svg primary" style="overflow: visible;"><svg xmlns="http://www.w3.org/2000/svg" viewBox="0.027576187625527382 -0.039846621453762054 1214.7960205078125 744.0399169921875"><defs><linearGradient id="a5ad3b9e5-b0d4-4d73-af68-f7a3eb3530eb" x1="766.71" y1="371.98" x2="1214.82" y2="371.98" gradientUnits="userSpaceOnUse"><stop offset="0" stop-color="#ffc64a"></stop><stop offset=".12" stop-color="#ffc143"></stop><stop offset=".3" stop-color="#ffb531"></stop><stop offset=".5" stop-color="#ffa013"></stop><stop offset=".61" stop-color="#ff9300"></stop><stop offset="1" stop-color="#ff7f00"></stop></linearGradient><linearGradient id="bb2ce2235-ed30-478a-8ce7-7fc523ead01d" x1="511.14" y1="371.98" x2="959.24" y2="371.98" gradientUnits="userSpaceOnUse"><stop offset="0" stop-color="#ffc64a"></stop><stop offset=".12" stop-color="#ffc143"></stop><stop offset=".3" stop-color="#ffb531"></stop><stop offset=".5" stop-color="#ffa013"></stop><stop offset=".61" stop-color="#ff9300"></stop><stop offset="1" stop-color="#ff7f00"></stop></linearGradient><linearGradient id="cba541aa6-71f6-44bf-92e5-eb7380e2a80f" x1="255.57" y1="371.98" x2="703.67" y2="371.98" gradientUnits="userSpaceOnUse"><stop offset="0" stop-color="#ffc64a"></stop><stop offset=".12" stop-color="#ffc143"></stop><stop offset=".3" stop-color="#ffb531"></stop><stop offset=".5" stop-color="#ffa013"></stop><stop offset=".61" stop-color="#ff9300"></stop><stop offset="1" stop-color="#ff7f00"></stop></linearGradient><linearGradient id="d6b2fb833-f990-4bbe-8b69-1eccbaaba89e" y1="371.98" x2="448.1" y2="371.98" gradientUnits="userSpaceOnUse"><stop offset="0" stop-color="#ffc64a"></stop><stop offset=".12" stop-color="#ffc143"></stop><stop offset=".3" stop-color="#ffb531"></stop><stop offset=".5" stop-color="#ffa013"></stop><stop offset=".61" stop-color="#ff9300"></stop><stop offset="1" stop-color="#ff7f00"></stop></linearGradient></defs><g style="isolation:isolate"><g style="mix-blend-mode:multiply"><path d="M862.92 744a96.29 96.29 0 0 1-87.26-136.74L1031.23 55.8a96.24 96.24 0 1 1 174.64 80.94L950.3 688.16A96.26 96.26 0 0 1 862.92 744z" fill="url(#a5ad3b9e5-b0d4-4d73-af68-f7a3eb3530eb)" style="mix-blend-mode:multiply"></path><path d="M863 744a96.25 96.25 0 0 1-87.38-55.8L520.09 136.74A96.24 96.24 0 1 1 694.73 55.8L950.3 607.22A96.29 96.29 0 0 1 863 744z" fill="url(#bb2ce2235-ed30-478a-8ce7-7fc523ead01d)" style="mix-blend-mode:multiply"></path><path d="M351.77 744a96.29 96.29 0 0 1-87.26-136.74L520.09 55.8a96.24 96.24 0 1 1 174.64 80.94L439.16 688.16A96.26 96.26 0 0 1 351.77 744z" fill="url(#cba541aa6-71f6-44bf-92e5-eb7380e2a80f)" style="mix-blend-mode:multiply"></path><path d="M351.9 744a96.25 96.25 0 0 1-87.38-55.8L8.95 136.74A96.24 96.24 0 1 1 183.59 55.8l255.57 551.42A96.29 96.29 0 0 1 351.9 744z" fill="url(#d6b2fb833-f990-4bbe-8b69-1eccbaaba89e)" style="mix-blend-mode:multiply"></path></g></g></svg></svg> <!----></g></g> <g transform="translate(67,0)"><g data-gra="path-name" fill-rule="" class="tp-name iconsvg-namesvg" transform="translate(0,0)"><g transform="scale(1)"><g><path d="M10.26 0L0.42-30.39 4.62-30.39Q5.28-30.39 5.7-30.06 6.12-29.73 6.27-29.28L6.27-29.28 12.09-9.72Q12.33-8.64 12.54-7.63 12.75-6.63 12.9-5.61L12.9-5.61Q13.14-6.63 13.44-7.63 13.74-8.64 14.07-9.72L14.07-9.72 20.49-29.4Q20.64-29.85 21.02-30.15 21.39-30.45 21.96-30.45L21.96-30.45 24.27-30.45Q24.87-30.45 25.26-30.15 25.65-29.85 25.8-29.4L25.8-29.4 32.07-9.72Q32.4-8.67 32.66-7.65 32.91-6.63 33.15-5.64L33.15-5.64Q33.3-6.63 33.54-7.71 33.78-8.79 34.05-9.72L34.05-9.72 39.99-29.28Q40.14-29.76 40.56-30.07 40.98-30.39 41.55-30.39L41.55-30.39 45.57-30.39 35.73 0 31.5 0Q30.72 0 30.42-1.02L30.42-1.02 23.7-21.63Q23.46-22.32 23.31-23.02 23.16-23.73 23.01-24.42L23.01-24.42Q22.86-23.73 22.71-23.01 22.56-22.29 22.32-21.6L22.32-21.6 15.51-1.02Q15.18 0 14.28 0L14.28 0 10.26 0ZM50.94-30.39L56.28-30.39 56.28 0 50.94 0 50.94-30.39ZM57.48-39.93L57.48-39.93Q57.48-39.15 57.16-38.48 56.85-37.8 56.33-37.27 55.8-36.75 55.11-36.45 54.42-36.15 53.64-36.15L53.64-36.15Q52.86-36.15 52.19-36.45 51.51-36.75 50.98-37.27 50.46-37.8 50.16-38.48 49.86-39.15 49.86-39.93L49.86-39.93Q49.86-40.71 50.16-41.41 50.46-42.12 50.98-42.64 51.51-43.17 52.19-43.47 52.86-43.77 53.64-43.77L53.64-43.77Q54.42-43.77 55.11-43.47 55.8-43.17 56.33-42.64 56.85-42.12 57.16-41.41 57.48-40.71 57.48-39.93ZM86.91-30.39L86.91-28.11Q86.91-27.54 86.7-27.02 86.49-26.49 86.16-26.07L86.16-26.07 69.72-4.17 86.31-4.17 86.31 0 63.42 0 63.42-2.22Q63.42-2.61 63.62-3.13 63.81-3.66 64.17-4.14L64.17-4.14 80.7-26.19 64.35-26.19 64.35-30.39 86.91-30.39ZM92.7-30.39L98.04-30.39 98.04-11.01Q98.04-7.56 99.63-5.67 101.22-3.78 104.43-3.78L104.43-3.78Q106.77-3.78 108.84-4.89 110.91-6 112.65-7.98L112.65-7.98 112.65-30.39 117.99-30.39 117.99 0 114.81 0Q113.67 0 113.37-1.11L113.37-1.11 112.95-4.38Q110.97-2.19 108.51-0.85 106.05 0.48 102.87 0.48L102.87 0.48Q100.38 0.48 98.47-0.34 96.57-1.17 95.28-2.67 93.99-4.17 93.34-6.3 92.7-8.43 92.7-11.01L92.7-11.01 92.7-30.39ZM127.38-30.39L132.72-30.39 132.72 0 127.38 0 127.38-30.39ZM133.92-39.93L133.92-39.93Q133.92-39.15 133.6-38.48 133.29-37.8 132.76-37.27 132.24-36.75 131.55-36.45 130.86-36.15 130.08-36.15L130.08-36.15Q129.3-36.15 128.63-36.45 127.95-36.75 127.42-37.27 126.9-37.8 126.6-38.48 126.3-39.15 126.3-39.93L126.3-39.93Q126.3-40.71 126.6-41.41 126.9-42.12 127.42-42.64 127.95-43.17 128.63-43.47 129.3-43.77 130.08-43.77L130.08-43.77Q130.86-43.77 131.55-43.47 132.24-43.17 132.76-42.64 133.29-42.12 133.6-41.41 133.92-40.71 133.92-39.93Z" transform="translate(-0.42000001668930054, 43.77000045776367)"></path></g> <!----> <!----> <!----> <!----> <!----> <!----> <!----></g></g> <g data-gra="path-slogan" fill-rule="" class="tp-slogan iconsvg-slogansvg" fill="#ff7f00" transform="translate(5,50.25)"><rect x="0" height="1" y="5.010000228881836" width="35.170000076293945"></rect> <rect height="1" y="5.010000228881836" width="35.170000076293945" x="88.32999992370605"></rect> <g transform="translate(38.170000076293945,0)"><g transform="scale(1)"><path d="M2.16-9.66L2.16-9.66Q3.33-9.66 3.28-9.52L3.28-9.52Q3.33-9.42 3.19-9.23L3.19-9.23Q3.09-9.05 3.09-8.95L3.09-8.95L3.09-6.98L3.33-6.98Q3.75-6.98 4.41-7.08L4.41-7.08L4.41-6.19Q4.13-6.23 3.33-6.23L3.33-6.23L3.09-6.23L3.09-4.88L3.75-5.16Q4.17-4.50 4.59-3.52L4.59-3.52L3.75-3.14Q3.47-4.08 3.09-4.64L3.09-4.64L3.09-0.70Q3.09-0.42 3.14 0.23L3.14 0.23Q3.14 0.84 3.14 1.08L3.14 1.08L2.16 1.08Q2.25 0.23 2.25-0.75L2.25-0.75L2.25-4.36Q2.20-4.22 2.06-3.98L2.06-3.98Q1.41-2.34 0.89-1.55L0.89-1.55Q0.70-2.02 0.28-2.44L0.28-2.44Q1.64-4.31 2.11-6.23L2.11-6.23L1.83-6.23Q0.94-6.23 0.61-6.19L0.61-6.19L0.61-7.08Q1.36-6.98 1.83-6.98L1.83-6.98L2.25-6.98L2.25-8.81Q2.25-9.33 2.16-9.66ZM8.30-9.70L8.30-9.70Q8.34-9.70 8.44-9.70L8.44-9.70Q9.38-9.61 9.38-9.52L9.38-9.52Q9.38-9.52 9.33-9.38L9.33-9.38Q9.23-9.14 9.23-9L9.23-9L9.23-8.34L9.56-8.34Q10.55-8.34 11.44-8.44L11.44-8.44L11.44-7.50Q10.55-7.59 9.66-7.59L9.66-7.59L9.23-7.59L9.23-6.47L9.47-6.47Q10.22-6.47 10.59-6.52L10.59-6.52Q10.45-5.53 10.45-5.11L10.45-5.11L10.45-4.50Q10.45-3.28 10.50-2.91L10.50-2.91Q9.94-2.95 8.63-3L8.63-3L8.02-3Q8.02-2.91 7.97-2.72L7.97-2.72Q7.92-2.39 7.88-2.11L7.88-2.11L9.80-2.11Q10.08-2.11 10.69-2.16L10.69-2.16Q11.16-2.16 11.30-2.16L11.30-2.16L11.30-1.41Q11.11-1.41 10.64-1.41L10.64-1.41Q10.08-1.45 9.84-1.45L9.84-1.45L8.39-1.45Q9.09-0.14 11.63 0.09L11.63 0.09Q11.16 0.47 10.78 1.13L10.78 1.13Q8.34 0.52 7.64-1.36L7.64-1.36Q7.13 0.19 4.22 1.08L4.22 1.08Q3.94 0.47 3.52 0.14L3.52 0.14Q5.91-0.09 6.80-1.45L6.80-1.45L5.25-1.45Q4.27-1.45 3.94-1.41L3.94-1.41L3.94-2.20Q4.64-2.11 5.20-2.11L5.20-2.11L6.98-2.11Q7.08-2.53 7.08-3L7.08-3L6.70-3Q5.95-3 4.88-2.91L4.88-2.91Q4.92-3.23 4.92-4.36L4.92-4.36L4.92-5.11Q4.92-6.14 4.83-6.47L4.83-6.47Q5.16-6.47 5.91-6.47L5.91-6.47L6.14-6.47L6.14-7.59L5.81-7.59Q4.83-7.59 4.31-7.55L4.31-7.55L4.31-8.44Q5.39-8.34 5.81-8.34L5.81-8.34L6.14-8.34L6.14-9.09Q6.14-9.38 6.09-9.66L6.09-9.66Q7.13-9.56 7.13-9.52L7.13-9.52Q7.17-9.42 7.08-9.28L7.08-9.28Q6.98-9.14 6.98-9.09L6.98-9.09L6.98-8.34L8.34-8.34L8.34-9.14Q8.39-9.42 8.30-9.70ZM8.39-6.47L8.39-7.59L6.98-7.59L6.98-6.47L8.39-6.47ZM9.61-5.86L5.77-5.86L5.77-5.06L9.61-5.06L9.61-5.86ZM9.61-4.45L5.77-4.45L5.77-3.61L9.61-3.61L9.61-4.45ZM15.52-9.80L15.52-9.80Q16.64-9.66 16.69-9.61L16.69-9.61Q16.69-9.56 16.59-9.38L16.59-9.38Q16.41-9 16.41-8.53L16.41-8.53L16.41-6.38Q17.06-6.38 17.39-6.47L17.39-6.47L17.39-5.48Q17.02-5.58 15.75-5.58L15.75-5.58L14.25-5.58L14.25-4.22L16.64-4.22L16.64-1.64Q16.64-0.09 16.69 0.14L16.69 0.14Q17.48-0.80 17.67-2.20L17.67-2.20Q17.91-3.56 17.91-7.31L17.91-7.31Q17.91-7.59 17.86-8.16L17.86-8.16Q17.86-8.63 17.86-8.86L17.86-8.86Q20.63-8.81 22.50-9.47L22.50-9.47Q23.25-8.53 23.25-8.30L23.25-8.30Q23.25-8.25 23.02-8.30L23.02-8.30Q22.59-8.39 22.22-8.34L22.22-8.34Q22.03-8.34 21.28-8.25L21.28-8.25Q19.27-8.11 18.80-8.11L18.80-8.11L18.80-6.66L21.19-6.66Q22.64-6.66 23.02-6.75L23.02-6.75Q22.45-3.38 21.33-1.41L21.33-1.41Q22.22-0.52 23.77 0.05L23.77 0.05Q23.34 0.33 23.02 0.98L23.02 0.98Q21.75 0.28 20.77-0.70L20.77-0.70Q19.92 0.19 18.80 0.94L18.80 0.94Q18.42 0.52 17.91 0.19L17.91 0.19Q18.98-0.19 20.20-1.45L20.20-1.45Q19.31-3.19 19.17-5.86L19.17-5.86L18.84-5.86Q18.84-2.58 18.52-1.27L18.52-1.27Q18.23 0 17.11 1.22L17.11 1.22Q16.78 0.94 16.17 0.66L16.17 0.66L16.64 0.28L15.66 0.28Q15.70 0 15.70-1.55L15.70-1.55L15.70-3.47L14.20-3.47Q14.25-0.70 13.22 0.98L13.22 0.98Q12.89 0.70 12.23 0.56L12.23 0.56Q13.36-0.47 13.36-4.50L13.36-4.50L13.36-7.27Q13.36-7.83 13.31-9.38L13.31-9.38Q14.44-9.38 14.48-9.23L14.48-9.23Q14.48-9.19 14.44-9.05L14.44-9.05Q14.25-8.63 14.25-8.02L14.25-8.02L14.25-6.38L15.56-6.38L15.56-8.20Q15.56-9.47 15.52-9.80ZM20.72-2.25L20.72-2.25Q21.52-3.66 21.84-5.86L21.84-5.86L19.97-5.86Q20.11-3.80 20.72-2.25ZM25.41-9.23L25.41-9.23Q25.92-9.19 27.23-9.14L27.23-9.14L32.53-9.14Q34.13-9.19 34.64-9.23L34.64-9.23Q34.59-8.72 34.55-7.41L34.55-7.41L34.55-0.52Q34.92 1.08 32.44 1.08L32.44 1.08Q32.39 0.38 31.88-0.14L31.88-0.14Q33.89 0.23 33.56-0.80L33.56-0.80L33.56-8.25L26.44-8.25L26.44-1.17Q26.44 0.38 26.53 0.84L26.53 0.84L25.31 0.84Q25.45 0.05 25.45-1.13L25.45-1.13L25.45-7.22Q25.45-8.81 25.41-9.23ZM26.48-1.22L26.48-1.22Q27.47-2.44 28.17-4.13L28.17-4.13Q27.42-5.77 26.67-6.80L26.67-6.80Q27.05-6.89 27.56-7.08L27.56-7.08Q28.08-6.14 28.55-5.16L28.55-5.16Q28.97-6.42 29.06-7.59L29.06-7.59Q29.20-7.55 29.53-7.45L29.53-7.45Q30.33-7.22 30.23-7.17L30.23-7.17Q30.23-7.17 30.19-7.13L30.19-7.13Q30.05-6.98 29.91-6.70L29.91-6.70Q29.81-6.47 29.63-5.95L29.63-5.95Q29.30-5.02 29.02-4.27L29.02-4.27Q29.53-3.33 30.05-2.34L30.05-2.34Q29.95-2.30 29.81-2.20L29.81-2.20Q29.34-1.97 29.11-1.78L29.11-1.78Q28.88-2.67 28.59-3.28L28.59-3.28Q27.84-1.59 27.38-0.80L27.38-0.80Q27.14-1.03 26.48-1.22ZM31.27-3.98L31.27-3.98Q30.66-5.20 30.09-6L30.09-6Q29.95-6.23 29.86-6.38L29.86-6.38Q30.09-6.47 30.47-6.61L30.47-6.61Q30.66-6.70 30.75-6.75L30.75-6.75Q31.13-6 31.45-5.30L31.45-5.30Q31.59-4.92 31.64-5.02L31.64-5.02Q32.02-6.19 32.11-7.41L32.11-7.41Q33.28-7.22 33.33-7.08L33.33-7.08Q33.33-7.08 33.28-7.03L33.28-7.03Q33.14-6.89 33.05-6.75L33.05-6.75Q33-6.56 32.86-6.23L32.86-6.23Q32.72-5.67 32.11-4.03L32.11-4.03Q32.95-2.25 33.28-1.59L33.28-1.59Q33.19-1.55 32.95-1.45L32.95-1.45Q32.58-1.31 32.30-1.17L32.30-1.17Q32.02-2.06 31.69-3.09L31.69-3.09Q31.59-2.91 31.36-2.48L31.36-2.48Q30.75-1.45 30.33-0.75L30.33-0.75Q29.81-0.98 29.20-1.13L29.20-1.13Q30.66-2.30 31.27-3.98ZM38.63-9L39.61-9.28Q39.89-8.72 40.17-7.59L40.17-7.59L39.19-7.31Q38.95-8.20 38.63-9L38.63-9ZM41.86-7.17L41.86-7.17L41.86-6.14Q41.77-6.14 41.30-6.14L41.30-6.14Q40.50-6.19 40.22-6.19L40.22-6.19L38.30-6.19Q37.22-6.19 36.80-6.14L36.80-6.14L36.80-7.17Q37.08-7.17 38.30-7.13L38.30-7.13L40.17-7.13Q40.36-7.13 40.97-7.13L40.97-7.13Q41.63-7.17 41.86-7.17ZM39.98-5.72L39.98-5.72Q41.16-5.53 41.16-5.39L41.16-5.39Q41.16-5.34 41.06-5.20L41.06-5.20Q40.92-4.97 40.88-4.69L40.88-4.69Q40.78-4.22 40.41-2.86L40.41-2.86Q40.03-1.55 39.98-1.31L39.98-1.31L41.34-1.55L41.34-0.66Q39.52-0.23 36.89 0.19L36.89 0.19L36.66-0.84L39.14-1.17Q39.84-3.84 39.98-5.72ZM37.45-5.44L38.44-5.53Q38.63-4.36 38.81-2.20L38.81-2.20L37.83-2.02Q37.78-4.03 37.45-5.44L37.45-5.44ZM45.47-3.38L42.61-3.38L42.61-0.66L45.47-0.66L45.47-3.38ZM43.31-8.48L43.27-9.56Q44.39-9.56 44.44-9.47L44.44-9.47Q44.25-9.14 44.20-8.77L44.20-8.77L44.20-7.31L46.27-7.31L47.44-7.36L47.44-6.42L46.31-6.47L44.20-6.47L44.20-4.22L45.47-4.22Q46.45-4.27 46.45-4.27L46.45-4.27Q46.41-3.66 46.41-3.28L46.41-3.28L46.41-0.19Q46.41 0.47 46.45 0.98L46.45 0.98L45.47 0.98Q45.52 0.70 45.52 0.14L45.52 0.14L42.61 0.14Q42.61 0.75 42.66 0.98L42.66 0.98L41.63 0.98Q41.67 0.56 41.67-0.14L41.67-0.14L41.67-3.33Q41.67-3.84 41.63-4.27L41.63-4.27Q41.67-4.27 42.66-4.22L42.66-4.22L43.31-4.22L43.31-8.48Z" transform="translate(-0.28125, 9.796875)"></path></g></g></g></g></g><defs v-gra="od"></defs></svg>